<svg width="138" height="26" viewBox="0 0 138 26" fill="none" xmlns="http://www.w3.org/2000/svg">
<path fill-rule="evenodd" clip-rule="evenodd" d="M11.7111 15.249H13.9278C14.4531 15.249 14.8888 14.82 14.8888 14.287C14.8888 13.741 14.4531 13.312 13.9278 13.312H11.7111V11.063C11.7111 10.53 11.2883 10.101 10.7629 10.101C10.2376 10.101 9.80204 10.53 9.80204 11.063V13.312H7.59814C7.07281 13.312 6.63715 13.741 6.63715 14.287C6.63715 14.82 7.07281 15.249 7.59814 15.249H9.80204V17.498C9.80204 18.031 10.2376 18.46 10.7629 18.46C11.2883 18.46 11.7111 18.031 11.7111 17.498V15.249ZM20.4964 9.13329C20.7975 9.1298 21.1254 9.126 21.4235 9.126C21.7438 9.126 22 9.386 22 9.711V20.163C22 23.387 19.4246 26 16.2342 26H6.04776C2.71637 26 0 23.257 0 19.877V5.863C0 2.639 2.58824 0 5.77869 0H12.6209C12.954 0 13.2102 0.273 13.2102 0.598V4.784C13.2102 7.163 15.1451 9.113 17.4899 9.126C18.0375 9.126 18.5204 9.13011 18.9429 9.13371C19.2716 9.13652 19.5638 9.139 19.8217 9.139C20.0042 9.139 20.2406 9.13626 20.4964 9.13329ZM20.8482 7.23606C19.795 7.23996 18.5534 7.23606 17.6603 7.22696C16.2432 7.22696 15.076 6.04266 15.076 4.60486V1.17806C15.076 0.61776 15.746 0.33956 16.1292 0.74386C16.8229 1.47563 17.7761 2.48158 18.725 3.48287C19.6708 4.48096 20.6123 5.4744 21.2877 6.18696C21.6618 6.58086 21.3876 7.23476 20.8482 7.23606Z" fill="#33D560"/>
<path d="M33.5674 18V17.1387L34.6816 16.9473V9.10645L33.5674 8.91504V8.04688H36.042L40.9229 15.8057L40.9639 15.792V9.10645L39.7402 8.91504V8.04688H43.3154V8.91504L42.2012 9.10645V18H40.9707L35.96 10.2002L35.9189 10.2139V16.9473L37.1426 17.1387V18H33.5674ZM47.7314 18.1436C47.0479 18.1436 46.4577 17.984 45.9609 17.665C45.4688 17.3415 45.0882 16.8971 44.8193 16.332C44.5505 15.7624 44.416 15.113 44.416 14.3838V14.2334C44.416 13.5042 44.5505 12.8571 44.8193 12.292C45.0882 11.7223 45.4688 11.2757 45.9609 10.9521C46.4577 10.6286 47.0433 10.4668 47.7178 10.4668C48.4014 10.4668 48.9893 10.6286 49.4814 10.9521C49.9782 11.2757 50.361 11.7201 50.6299 12.2852C50.8988 12.8503 51.0332 13.4997 51.0332 14.2334V14.3838C51.0332 15.1175 50.8988 15.7692 50.6299 16.3389C50.361 16.904 49.9805 17.346 49.4883 17.665C48.9961 17.984 48.4105 18.1436 47.7314 18.1436ZM47.7314 17.0908C48.3695 17.0908 48.8548 16.8356 49.1875 16.3252C49.5202 15.8148 49.6865 15.1676 49.6865 14.3838V14.2334C49.6865 13.7139 49.6113 13.2513 49.4609 12.8457C49.3151 12.4355 49.0964 12.1143 48.8047 11.8818C48.513 11.6449 48.1507 11.5264 47.7178 11.5264C47.2894 11.5264 46.9294 11.6449 46.6377 11.8818C46.346 12.1143 46.1273 12.4355 45.9814 12.8457C45.8356 13.2513 45.7627 13.7139 45.7627 14.2334V14.3838C45.7627 15.1676 45.9268 15.8148 46.2549 16.3252C46.5876 16.8356 47.0798 17.0908 47.7314 17.0908ZM54.8955 18L52.2637 11.5742L51.498 11.4717V10.6035H54.6016V11.4717L53.6377 11.6084L55.2783 15.8193L55.4697 16.4141H55.5107L55.7295 15.8193L57.2539 11.6084L56.2627 11.4717V10.6035H59.3594V11.4717L58.5801 11.5742L56.0781 18H54.8955ZM62.3535 18.1436C61.5833 18.1436 60.9977 17.9567 60.5967 17.583C60.1956 17.2048 59.9951 16.6738 59.9951 15.9902C59.9951 15.2884 60.2822 14.7256 60.8564 14.3018C61.4307 13.8734 62.2282 13.6592 63.249 13.6592H64.5684V12.9346C64.5684 12.488 64.4316 12.1416 64.1582 11.8955C63.8893 11.6494 63.5088 11.5264 63.0166 11.5264C62.7067 11.5264 62.4378 11.5651 62.21 11.6426C61.9821 11.7155 61.7747 11.818 61.5879 11.9502L61.4443 12.9824H60.4053V11.2871C61.0752 10.7402 61.9525 10.4668 63.0371 10.4668C63.9349 10.4668 64.639 10.681 65.1494 11.1094C65.6598 11.5378 65.915 12.1507 65.915 12.9482V16.5098C65.915 16.6055 65.915 16.6989 65.915 16.79C65.9196 16.8812 65.9264 16.9723 65.9355 17.0635L66.6533 17.1387V18H64.7188C64.6413 17.6263 64.5934 17.2868 64.5752 16.9814C64.3154 17.3141 63.9896 17.5921 63.5977 17.8154C63.2103 18.0342 62.7956 18.1436 62.3535 18.1436ZM62.5518 17.0156C62.9984 17.0156 63.4062 16.9085 63.7754 16.6943C64.1445 16.4801 64.4089 16.2227 64.5684 15.9219V14.582H63.2012C62.5814 14.582 62.1165 14.7301 61.8066 15.0264C61.4967 15.3226 61.3418 15.653 61.3418 16.0176C61.3418 16.6829 61.7451 17.0156 62.5518 17.0156ZM73.7969 18.1162C73.25 18.1162 72.8148 17.9567 72.4912 17.6377C72.1722 17.3141 72.0127 16.7992 72.0127 16.0928V11.6016H70.8438V10.6035H72.0127V8.81934H73.3594V10.6035H74.9658V11.6016H73.3594V16.0928C73.3594 16.4482 73.43 16.7103 73.5713 16.8789C73.7126 17.0475 73.9017 17.1318 74.1387 17.1318C74.2982 17.1318 74.4759 17.1182 74.6719 17.0908C74.8678 17.0589 75.0205 17.0316 75.1299 17.0088L75.3145 17.8906C75.1185 17.9499 74.877 18.0023 74.5898 18.0479C74.3073 18.0934 74.043 18.1162 73.7969 18.1162ZM76.1621 18V17.1387L77.2764 16.9473V11.6631L76.1621 11.4717V10.6035H78.4795L78.5957 11.5469L78.6094 11.6768C78.819 11.2985 79.0765 11.0023 79.3818 10.7881C79.6917 10.5739 80.0449 10.4668 80.4414 10.4668C80.5827 10.4668 80.7262 10.4805 80.8721 10.5078C81.0225 10.5306 81.1296 10.5534 81.1934 10.5762L81.0156 11.8271L80.0791 11.7725C79.7236 11.7497 79.4251 11.8317 79.1836 12.0186C78.9421 12.2008 78.7552 12.4469 78.623 12.7568V16.9473L79.7373 17.1387V18H76.1621ZM84.4062 18.1436C83.6361 18.1436 83.0505 17.9567 82.6494 17.583C82.2484 17.2048 82.0479 16.6738 82.0479 15.9902C82.0479 15.2884 82.335 14.7256 82.9092 14.3018C83.4834 13.8734 84.2809 13.6592 85.3018 13.6592H86.6211V12.9346C86.6211 12.488 86.4844 12.1416 86.2109 11.8955C85.9421 11.6494 85.5615 11.5264 85.0693 11.5264C84.7594 11.5264 84.4906 11.5651 84.2627 11.6426C84.0348 11.7155 83.8275 11.818 83.6406 11.9502L83.4971 12.9824H82.458V11.2871C83.1279 10.7402 84.0052 10.4668 85.0898 10.4668C85.9876 10.4668 86.6917 10.681 87.2021 11.1094C87.7126 11.5378 87.9678 12.1507 87.9678 12.9482V16.5098C87.9678 16.6055 87.9678 16.6989 87.9678 16.79C87.9723 16.8812 87.9792 16.9723 87.9883 17.0635L88.7061 17.1387V18H86.7715C86.694 17.6263 86.6462 17.2868 86.6279 16.9814C86.3682 17.3141 86.0423 17.5921 85.6504 17.8154C85.263 18.0342 84.8483 18.1436 84.4062 18.1436ZM84.6045 17.0156C85.0511 17.0156 85.459 16.9085 85.8281 16.6943C86.1973 16.4801 86.4616 16.2227 86.6211 15.9219V14.582H85.2539C84.6341 14.582 84.1693 14.7301 83.8594 15.0264C83.5495 15.3226 83.3945 15.653 83.3945 16.0176C83.3945 16.6829 83.7979 17.0156 84.6045 17.0156ZM89.752 18V17.1387L90.8662 16.9473V11.6631L89.752 11.4717V10.6035H92.0693L92.165 11.7041C92.4111 11.3122 92.7188 11.0091 93.0879 10.7949C93.4616 10.5762 93.8854 10.4668 94.3594 10.4668C95.1569 10.4668 95.7744 10.7015 96.2119 11.1709C96.6494 11.6357 96.8682 12.3558 96.8682 13.3311V16.9473L97.9824 17.1387V18H94.4072V17.1387L95.5215 16.9473V13.3584C95.5215 12.7067 95.3916 12.2441 95.1318 11.9707C94.8766 11.6973 94.4847 11.5605 93.9561 11.5605C93.5687 11.5605 93.2246 11.654 92.9238 11.8408C92.6276 12.0277 92.3906 12.2829 92.2129 12.6064V16.9473L93.3271 17.1387V18H89.752ZM101.934 18.1436C101.437 18.1436 100.972 18.0934 100.539 17.9932C100.106 17.8929 99.6458 17.738 99.1582 17.5283L99.1445 15.7715H100.163L100.416 16.8311C100.899 17.0316 101.405 17.1318 101.934 17.1318C102.48 17.1318 102.872 17.027 103.109 16.8174C103.346 16.6077 103.465 16.348 103.465 16.0381C103.465 15.7464 103.344 15.5003 103.103 15.2998C102.866 15.0947 102.433 14.9215 101.804 14.7803C100.91 14.5752 100.252 14.3018 99.8281 13.96C99.4089 13.6136 99.1992 13.1533 99.1992 12.5791C99.1992 12.1781 99.3154 11.8203 99.5479 11.5059C99.7803 11.1868 100.104 10.9339 100.519 10.7471C100.933 10.5602 101.416 10.4668 101.968 10.4668C102.528 10.4668 103.007 10.5306 103.403 10.6582C103.804 10.7858 104.153 10.9567 104.449 11.1709L104.518 12.8594H103.506L103.287 11.875C103.128 11.7565 102.938 11.6654 102.72 11.6016C102.501 11.5378 102.25 11.5059 101.968 11.5059C101.549 11.5059 101.207 11.6038 100.942 11.7998C100.683 11.9958 100.553 12.2419 100.553 12.5381C100.553 12.7113 100.589 12.8617 100.662 12.9893C100.74 13.1169 100.885 13.2331 101.1 13.3379C101.314 13.4382 101.628 13.5384 102.043 13.6387C103.073 13.8802 103.791 14.1878 104.196 14.5615C104.606 14.9352 104.812 15.3955 104.812 15.9424C104.812 16.5667 104.579 17.0908 104.114 17.5146C103.654 17.9339 102.927 18.1436 101.934 18.1436ZM108.318 18.1436C107.548 18.1436 106.963 17.9567 106.562 17.583C106.16 17.2048 105.96 16.6738 105.96 15.9902C105.96 15.2884 106.247 14.7256 106.821 14.3018C107.396 13.8734 108.193 13.6592 109.214 13.6592H110.533V12.9346C110.533 12.488 110.396 12.1416 110.123 11.8955C109.854 11.6494 109.474 11.5264 108.981 11.5264C108.672 11.5264 108.403 11.5651 108.175 11.6426C107.947 11.7155 107.74 11.818 107.553 11.9502L107.409 12.9824H106.37V11.2871C107.04 10.7402 107.917 10.4668 109.002 10.4668C109.9 10.4668 110.604 10.681 111.114 11.1094C111.625 11.5378 111.88 12.1507 111.88 12.9482V16.5098C111.88 16.6055 111.88 16.6989 111.88 16.79C111.884 16.8812 111.891 16.9723 111.9 17.0635L112.618 17.1387V18H110.684C110.606 17.6263 110.558 17.2868 110.54 16.9814C110.28 17.3141 109.954 17.5921 109.562 17.8154C109.175 18.0342 108.76 18.1436 108.318 18.1436ZM108.517 17.0156C108.963 17.0156 109.371 16.9085 109.74 16.6943C110.109 16.4801 110.374 16.2227 110.533 15.9219V14.582H109.166C108.546 14.582 108.081 14.7301 107.771 15.0264C107.462 15.3226 107.307 15.653 107.307 16.0176C107.307 16.6829 107.71 17.0156 108.517 17.0156ZM117.007 18.1436C116.337 18.1436 115.754 17.9886 115.257 17.6787C114.76 17.3643 114.375 16.929 114.102 16.373C113.828 15.8171 113.691 15.1745 113.691 14.4453V14.1582C113.691 13.4564 113.824 12.8275 114.088 12.2715C114.352 11.7155 114.733 11.2757 115.229 10.9521C115.726 10.6286 116.319 10.4668 117.007 10.4668C117.604 10.4668 118.126 10.5648 118.572 10.7607C119.023 10.9567 119.402 11.2256 119.707 11.5674L119.741 13.3447H118.688L118.456 12.0527C118.301 11.8932 118.107 11.7656 117.875 11.6699C117.643 11.5742 117.369 11.5264 117.055 11.5264C116.654 11.5264 116.3 11.6449 115.995 11.8818C115.694 12.1188 115.46 12.4355 115.291 12.832C115.122 13.2285 115.038 13.6706 115.038 14.1582V14.4453C115.038 15.2565 115.214 15.9014 115.564 16.3799C115.915 16.8538 116.394 17.0908 117 17.0908C117.456 17.0908 117.834 16.9655 118.135 16.7148C118.436 16.4642 118.62 16.1201 118.688 15.6826H119.898L119.912 15.7236C119.889 16.1475 119.764 16.5439 119.536 16.9131C119.308 17.2822 118.982 17.5807 118.559 17.8086C118.139 18.0319 117.622 18.1436 117.007 18.1436ZM116.316 20.9736L116.269 20.2285C116.597 20.2285 116.859 20.1738 117.055 20.0645C117.255 19.9551 117.355 19.7933 117.355 19.5791C117.355 19.3649 117.273 19.2168 117.109 19.1348C116.945 19.0527 116.663 18.9958 116.262 18.9639L116.535 17.7812H117.499L117.362 18.3965C117.663 18.4466 117.911 18.5628 118.107 18.7451C118.303 18.9274 118.401 19.1986 118.401 19.5586C118.401 19.987 118.221 20.3288 117.861 20.584C117.501 20.8438 116.986 20.9736 116.316 20.9736ZM123.494 18.1436C122.724 18.1436 122.138 17.9567 121.737 17.583C121.336 17.2048 121.136 16.6738 121.136 15.9902C121.136 15.2884 121.423 14.7256 121.997 14.3018C122.571 13.8734 123.369 13.6592 124.39 13.6592H125.709V12.9346C125.709 12.488 125.572 12.1416 125.299 11.8955C125.03 11.6494 124.649 11.5264 124.157 11.5264C123.847 11.5264 123.578 11.5651 123.351 11.6426C123.123 11.7155 122.915 11.818 122.729 11.9502L122.585 12.9824H121.546V11.2871C122.216 10.7402 123.093 10.4668 124.178 10.4668C125.076 10.4668 125.78 10.681 126.29 11.1094C126.8 11.5378 127.056 12.1507 127.056 12.9482V16.5098C127.056 16.6055 127.056 16.6989 127.056 16.79C127.06 16.8812 127.067 16.9723 127.076 17.0635L127.794 17.1387V18H125.859C125.782 17.6263 125.734 17.2868 125.716 16.9814C125.456 17.3141 125.13 17.5921 124.738 17.8154C124.351 18.0342 123.936 18.1436 123.494 18.1436ZM123.692 17.0156C124.139 17.0156 124.547 16.9085 124.916 16.6943C125.285 16.4801 125.549 16.2227 125.709 15.9219V14.582H124.342C123.722 14.582 123.257 14.7301 122.947 15.0264C122.637 15.3226 122.482 15.653 122.482 16.0176C122.482 16.6829 122.886 17.0156 123.692 17.0156ZM122.605 9.0791L121.874 8.92871C121.874 8.63704 121.938 8.37044 122.065 8.12891C122.193 7.88737 122.364 7.69368 122.578 7.54785C122.792 7.39746 123.032 7.32227 123.296 7.32227C123.501 7.32227 123.72 7.37923 123.952 7.49316C124.185 7.6071 124.408 7.72103 124.622 7.83496C124.841 7.94889 125.028 8.00586 125.183 8.00586C125.369 8.00586 125.531 7.93294 125.668 7.78711C125.805 7.63672 125.873 7.45215 125.873 7.2334L126.611 7.4248C126.611 7.8623 126.472 8.23372 126.194 8.53906C125.916 8.83984 125.579 8.99023 125.183 8.99023C124.959 8.99023 124.731 8.93555 124.499 8.82617C124.267 8.71224 124.046 8.59831 123.836 8.48438C123.631 8.37044 123.451 8.31348 123.296 8.31348C123.104 8.31348 122.94 8.38867 122.804 8.53906C122.672 8.6849 122.605 8.86491 122.605 9.0791ZM132.183 18.1436C131.499 18.1436 130.909 17.984 130.412 17.665C129.92 17.3415 129.539 16.8971 129.271 16.332C129.002 15.7624 128.867 15.113 128.867 14.3838V14.2334C128.867 13.5042 129.002 12.8571 129.271 12.292C129.539 11.7223 129.92 11.2757 130.412 10.9521C130.909 10.6286 131.494 10.4668 132.169 10.4668C132.853 10.4668 133.44 10.6286 133.933 10.9521C134.429 11.2757 134.812 11.7201 135.081 12.2852C135.35 12.8503 135.484 13.4997 135.484 14.2334V14.3838C135.484 15.1175 135.35 15.7692 135.081 16.3389C134.812 16.904 134.432 17.346 133.939 17.665C133.447 17.984 132.862 18.1436 132.183 18.1436ZM132.183 17.0908C132.821 17.0908 133.306 16.8356 133.639 16.3252C133.971 15.8148 134.138 15.1676 134.138 14.3838V14.2334C134.138 13.7139 134.062 13.2513 133.912 12.8457C133.766 12.4355 133.548 12.1143 133.256 11.8818C132.964 11.6449 132.602 11.5264 132.169 11.5264C131.741 11.5264 131.381 11.6449 131.089 11.8818C130.797 12.1143 130.578 12.4355 130.433 12.8457C130.287 13.2513 130.214 13.7139 130.214 14.2334V14.3838C130.214 15.1676 130.378 15.8148 130.706 16.3252C131.039 16.8356 131.531 17.0908 132.183 17.0908Z" fill="#33D460"/>
</svg>
