<svg width="87" height="41" viewBox="0 0 87 41" fill="none" xmlns="http://www.w3.org/2000/svg">
<path d="M0.553711 40V39.1387L1.66797 38.9473V31.1064L0.553711 30.915V30.0469H4.84668C5.88574 30.0469 6.69694 30.2725 7.28027 30.7236C7.86816 31.1702 8.16211 31.8424 8.16211 32.7402C8.16211 33.1823 8.02083 33.5788 7.73828 33.9297C7.46029 34.276 7.09115 34.5335 6.63086 34.7021C7.22786 34.8298 7.69954 35.1237 8.0459 35.584C8.39225 36.0443 8.56543 36.5798 8.56543 37.1904C8.56543 38.1019 8.26921 38.7992 7.67676 39.2822C7.08431 39.7607 6.28223 40 5.27051 40H0.553711ZM3.01465 34.2783H5.19531C5.67839 34.2783 6.06803 34.1393 6.36426 33.8613C6.66504 33.5788 6.81543 33.196 6.81543 32.7129C6.81543 32.1751 6.64681 31.7741 6.30957 31.5098C5.97233 31.2409 5.4847 31.1064 4.84668 31.1064H3.01465V34.2783ZM3.01465 38.9473H5.27051C5.88574 38.9473 6.36198 38.7969 6.69922 38.4961C7.04102 38.1908 7.21191 37.7601 7.21191 37.2041C7.21191 36.6208 7.06836 36.1628 6.78125 35.8301C6.4987 35.4974 6.06348 35.3311 5.47559 35.3311H3.01465V38.9473ZM11.9355 40.1436C11.1654 40.1436 10.5798 39.9567 10.1787 39.583C9.77767 39.2048 9.57715 38.6738 9.57715 37.9902C9.57715 37.2884 9.86426 36.7256 10.4385 36.3018C11.0127 35.8734 11.8102 35.6592 12.8311 35.6592H14.1504V34.9346C14.1504 34.488 14.0137 34.1416 13.7402 33.8955C13.4714 33.6494 13.0908 33.5264 12.5986 33.5264C12.2887 33.5264 12.0199 33.5651 11.792 33.6426C11.5641 33.7155 11.3568 33.818 11.1699 33.9502L11.0264 34.9824H9.9873V33.2871C10.6572 32.7402 11.5345 32.4668 12.6191 32.4668C13.5169 32.4668 14.221 32.681 14.7314 33.1094C15.2419 33.5378 15.4971 34.1507 15.4971 34.9482V38.5098C15.4971 38.6055 15.4971 38.6989 15.4971 38.79C15.5016 38.8812 15.5085 38.9723 15.5176 39.0635L16.2354 39.1387V40H14.3008C14.2233 39.6263 14.1755 39.2868 14.1572 38.9814C13.8975 39.3141 13.5716 39.5921 13.1797 39.8154C12.7923 40.0342 12.3776 40.1436 11.9355 40.1436ZM12.1338 39.0156C12.5804 39.0156 12.9883 38.9085 13.3574 38.6943C13.7266 38.4801 13.9909 38.2227 14.1504 37.9219V36.582H12.7832C12.1634 36.582 11.6986 36.7301 11.3887 37.0264C11.0788 37.3226 10.9238 37.653 10.9238 38.0176C10.9238 38.6829 11.3271 39.0156 12.1338 39.0156ZM17.2334 40V39.1387L18.3477 38.9473V33.6631L17.2334 33.4717V32.6035H19.6943V38.9473L20.8086 39.1387V40H17.2334ZM18.2793 30.7783V29.3359H19.6943V30.7783H18.2793ZM21.5195 40V39.1387L22.3398 38.9814L24.5479 36.2607L22.3877 33.6289L21.6562 33.4717V32.6035H24.5547V33.4717L23.8164 33.5537L25.334 35.4404L26.8105 33.5469L26.0176 33.4717V32.6035H28.8682V33.4717L28.1162 33.6289L26.1133 36.2402L28.417 38.9814L29.1826 39.1387V40H26.0449V39.1387L26.9336 39.0635L25.3135 37.0879L23.7412 39.0635L24.541 39.1387V40H21.5195ZM32.3613 40.1436C31.5911 40.1436 31.0055 39.9567 30.6045 39.583C30.2035 39.2048 30.0029 38.6738 30.0029 37.9902C30.0029 37.2884 30.29 36.7256 30.8643 36.3018C31.4385 35.8734 32.236 35.6592 33.2568 35.6592H34.5762V34.9346C34.5762 34.488 34.4395 34.1416 34.166 33.8955C33.8971 33.6494 33.5166 33.5264 33.0244 33.5264C32.7145 33.5264 32.4456 33.5651 32.2178 33.6426C31.9899 33.7155 31.7826 33.818 31.5957 33.9502L31.4521 34.9824H30.4131V33.2871C31.083 32.7402 31.9603 32.4668 33.0449 32.4668C33.9427 32.4668 34.6468 32.681 35.1572 33.1094C35.6676 33.5378 35.9229 34.1507 35.9229 34.9482V38.5098C35.9229 38.6055 35.9229 38.6989 35.9229 38.79C35.9274 38.8812 35.9342 38.9723 35.9434 39.0635L36.6611 39.1387V40H34.7266C34.6491 39.6263 34.6012 39.2868 34.583 38.9814C34.3232 39.3141 33.9974 39.5921 33.6055 39.8154C33.2181 40.0342 32.8034 40.1436 32.3613 40.1436ZM32.5596 39.0156C33.0062 39.0156 33.4141 38.9085 33.7832 38.6943C34.1523 38.4801 34.4167 38.2227 34.5762 37.9219V36.582H33.209C32.5892 36.582 32.1243 36.7301 31.8145 37.0264C31.5046 37.3226 31.3496 37.653 31.3496 38.0176C31.3496 38.6829 31.7529 39.0156 32.5596 39.0156ZM37.6934 40V39.1387L38.8076 38.9473V33.6631L37.6934 33.4717V32.6035H40.0107L40.127 33.5469L40.1406 33.6768C40.3503 33.2985 40.6077 33.0023 40.9131 32.7881C41.223 32.5739 41.5762 32.4668 41.9727 32.4668C42.1139 32.4668 42.2575 32.4805 42.4033 32.5078C42.5537 32.5306 42.6608 32.5534 42.7246 32.5762L42.5469 33.8271L41.6104 33.7725C41.2549 33.7497 40.9564 33.8317 40.7148 34.0186C40.4733 34.2008 40.2865 34.4469 40.1543 34.7568V38.9473L41.2686 39.1387V40H37.6934ZM49.6426 40.1162C49.0957 40.1162 48.6605 39.9567 48.3369 39.6377C48.0179 39.3141 47.8584 38.7992 47.8584 38.0928V33.6016H46.6895V32.6035H47.8584V30.8193H49.2051V32.6035H50.8115V33.6016H49.2051V38.0928C49.2051 38.4482 49.2757 38.7103 49.417 38.8789C49.5583 39.0475 49.7474 39.1318 49.9844 39.1318C50.1439 39.1318 50.3216 39.1182 50.5176 39.0908C50.7135 39.0589 50.8662 39.0316 50.9756 39.0088L51.1602 39.8906C50.9642 39.9499 50.7227 40.0023 50.4355 40.0479C50.153 40.0934 49.8887 40.1162 49.6426 40.1162ZM54.4141 40.1436C53.6439 40.1436 53.0583 39.9567 52.6572 39.583C52.2562 39.2048 52.0557 38.6738 52.0557 37.9902C52.0557 37.2884 52.3428 36.7256 52.917 36.3018C53.4912 35.8734 54.2887 35.6592 55.3096 35.6592H56.6289V34.9346C56.6289 34.488 56.4922 34.1416 56.2188 33.8955C55.9499 33.6494 55.5693 33.5264 55.0771 33.5264C54.7673 33.5264 54.4984 33.5651 54.2705 33.6426C54.0426 33.7155 53.8353 33.818 53.6484 33.9502L53.5049 34.9824H52.4658V33.2871C53.1357 32.7402 54.013 32.4668 55.0977 32.4668C55.9954 32.4668 56.6995 32.681 57.21 33.1094C57.7204 33.5378 57.9756 34.1507 57.9756 34.9482V38.5098C57.9756 38.6055 57.9756 38.6989 57.9756 38.79C57.9801 38.8812 57.987 38.9723 57.9961 39.0635L58.7139 39.1387V40H56.7793C56.7018 39.6263 56.654 39.2868 56.6357 38.9814C56.376 39.3141 56.0501 39.5921 55.6582 39.8154C55.2708 40.0342 54.8561 40.1436 54.4141 40.1436ZM54.6123 39.0156C55.0589 39.0156 55.4668 38.9085 55.8359 38.6943C56.2051 38.4801 56.4694 38.2227 56.6289 37.9219V36.582H55.2617C54.6419 36.582 54.1771 36.7301 53.8672 37.0264C53.5573 37.3226 53.4023 37.653 53.4023 38.0176C53.4023 38.6829 53.8057 39.0156 54.6123 39.0156ZM63.6904 40.1436C62.738 40.1436 62.0225 39.779 61.5439 39.0498L61.4209 40H60.2588V30.3955L59.1445 30.2041V29.3359H61.6055V33.4785C61.8379 33.1504 62.125 32.8997 62.4668 32.7266C62.8132 32.5534 63.2165 32.4668 63.6768 32.4668C64.2874 32.4668 64.807 32.6331 65.2354 32.9658C65.6683 33.2939 65.9987 33.7565 66.2266 34.3535C66.459 34.9505 66.5752 35.6455 66.5752 36.4385V36.582C66.5752 37.293 66.459 37.915 66.2266 38.4482C65.9987 38.9814 65.6683 39.3984 65.2354 39.6992C64.807 39.9954 64.292 40.1436 63.6904 40.1436ZM63.3486 39.0498C63.9821 39.0498 64.4515 38.8242 64.7568 38.373C65.0667 37.9219 65.2217 37.3249 65.2217 36.582V36.4385C65.2217 35.5863 65.0667 34.8936 64.7568 34.3604C64.4469 33.8271 63.973 33.5605 63.335 33.5605C62.9202 33.5605 62.5693 33.6608 62.2822 33.8613C61.9997 34.0618 61.7741 34.3307 61.6055 34.668V37.9355C61.7741 38.2773 62.002 38.5485 62.2891 38.749C62.5807 38.9495 62.9339 39.0498 63.3486 39.0498ZM71.2373 40.1436C70.5537 40.1436 69.959 39.9886 69.4531 39.6787C68.9473 39.3643 68.5553 38.929 68.2773 38.373C68.0039 37.8171 67.8672 37.1745 67.8672 36.4453V36.1445C67.8672 35.4427 68.0107 34.8161 68.2979 34.2646C68.5895 33.7087 68.9746 33.2712 69.4531 32.9521C69.9362 32.6286 70.4626 32.4668 71.0322 32.4668C72.0257 32.4668 72.7777 32.7676 73.2881 33.3691C73.8031 33.9707 74.0605 34.7728 74.0605 35.7754V36.6162H69.2617L69.2412 36.6504C69.2549 37.3613 69.4349 37.9469 69.7812 38.4072C70.1276 38.863 70.613 39.0908 71.2373 39.0908C71.693 39.0908 72.0918 39.027 72.4336 38.8994C72.7799 38.7673 73.0785 38.5872 73.3291 38.3594L73.8555 39.2344C73.5911 39.4896 73.2402 39.7061 72.8027 39.8838C72.3698 40.057 71.848 40.1436 71.2373 40.1436ZM69.3027 35.5635H72.7139V35.3857C72.7139 34.8571 72.5726 34.415 72.29 34.0596C72.0075 33.7041 71.5882 33.5264 71.0322 33.5264C70.5811 33.5264 70.196 33.7178 69.877 34.1006C69.5579 34.4788 69.362 34.9551 69.2891 35.5293L69.3027 35.5635ZM75.0449 40V39.1387L76.1592 38.9473V30.3955L75.0449 30.2041V29.3359H77.5059V38.9473L78.6201 39.1387V40H75.0449ZM81.9766 40.1436C81.2064 40.1436 80.6208 39.9567 80.2197 39.583C79.8187 39.2048 79.6182 38.6738 79.6182 37.9902C79.6182 37.2884 79.9053 36.7256 80.4795 36.3018C81.0537 35.8734 81.8512 35.6592 82.8721 35.6592H84.1914V34.9346C84.1914 34.488 84.0547 34.1416 83.7812 33.8955C83.5124 33.6494 83.1318 33.5264 82.6396 33.5264C82.3298 33.5264 82.0609 33.5651 81.833 33.6426C81.6051 33.7155 81.3978 33.818 81.2109 33.9502L81.0674 34.9824H80.0283V33.2871C80.6982 32.7402 81.5755 32.4668 82.6602 32.4668C83.5579 32.4668 84.262 32.681 84.7725 33.1094C85.2829 33.5378 85.5381 34.1507 85.5381 34.9482V38.5098C85.5381 38.6055 85.5381 38.6989 85.5381 38.79C85.5426 38.8812 85.5495 38.9723 85.5586 39.0635L86.2764 39.1387V40H84.3418C84.2643 39.6263 84.2165 39.2868 84.1982 38.9814C83.9385 39.3141 83.6126 39.5921 83.2207 39.8154C82.8333 40.0342 82.4186 40.1436 81.9766 40.1436ZM82.1748 39.0156C82.6214 39.0156 83.0293 38.9085 83.3984 38.6943C83.7676 38.4801 84.0319 38.2227 84.1914 37.9219V36.582H82.8242C82.2044 36.582 81.7396 36.7301 81.4297 37.0264C81.1198 37.3226 80.9648 37.653 80.9648 38.0176C80.9648 38.6829 81.3682 39.0156 82.1748 39.0156Z" fill="#33D460"/>
<path fill-rule="evenodd" clip-rule="evenodd" d="M47.1944 0.318045L53.7303 7.22346C53.9032 7.4067 54 7.65014 54 7.90405V19.9309C54 23.2214 51.3539 26 48.2201 26H37.9141C34.5971 26 32 23.334 32 19.9309V16.6511C32 16.1091 32.4335 15.6694 32.9676 15.6694C33.5018 15.6694 33.9353 16.1091 33.9353 16.6511V19.9309C33.9353 22.2711 35.6447 24.0367 37.9141 24.0367H48.2201C50.3049 24.0367 52.0648 22.1559 52.0648 19.9309V8.29802L47.1247 3.07837V4.79033C47.1247 6.10441 48.1788 7.17634 49.4741 7.17896C50.0082 7.18026 50.4404 7.62004 50.4391 8.16321C50.4378 8.70375 50.0056 9.14221 49.4715 9.14221H49.4702C47.1105 9.13697 45.1894 7.1855 45.1894 4.79033V1.97896H37.9141C35.757 1.97896 33.9353 3.7642 33.9353 5.87798V11.3149C33.9353 11.8568 33.5018 12.2964 32.9676 12.2964C32.4335 12.2964 32 11.8568 32 11.3149V5.87798C32 2.70013 34.7081 0.0157039 37.9141 0.0157039H46.0822C46.0937 0.0145339 46.1048 0.011258 46.1158 0.00800803C46.1293 0.00399103 46.1428 0 46.157 0C46.1721 0 46.1856 0.00406886 46.1991 0.00811186C46.2098 0.0113359 46.2204 0.0145469 46.2319 0.0157039H46.4963C46.7595 0.0157039 47.0111 0.124345 47.1944 0.318045ZM41.5348 9.73891C41.5348 9.19705 41.9682 8.75728 42.5024 8.75728C43.0365 8.75728 43.47 9.19705 43.47 9.73891V15.9637L45.4775 13.9181C45.8556 13.5333 46.4671 13.5333 46.8464 13.9155C47.2257 14.2975 47.227 14.9193 46.8503 15.3041L43.1888 19.0355C43.1882 19.0355 43.1875 19.0359 43.1869 19.0362C43.1862 19.0365 43.1856 19.0368 43.1849 19.0368C43.0972 19.1259 42.9926 19.1979 42.8765 19.2475C42.7592 19.2973 42.6327 19.3235 42.5024 19.3235C42.3721 19.3235 42.2457 19.2973 42.1283 19.2475C42.0121 19.1979 41.9063 19.1246 41.8173 19.0355L38.1545 15.3041C37.7778 14.9193 37.7791 14.2975 38.1571 13.9155C38.5364 13.5333 39.1492 13.5333 39.526 13.9181L41.5348 15.965V9.73891Z" fill="#33D460"/>
</svg>
