<svg width="162" height="26" viewBox="0 0 162 26" fill="none" xmlns="http://www.w3.org/2000/svg">
<path fill-rule="evenodd" clip-rule="evenodd" d="M11.7111 15.249H13.9278C14.4531 15.249 14.8888 14.82 14.8888 14.287C14.8888 13.741 14.4531 13.312 13.9278 13.312H11.7111V11.063C11.7111 10.53 11.2883 10.101 10.7629 10.101C10.2376 10.101 9.80204 10.53 9.80204 11.063V13.312H7.59814C7.07281 13.312 6.63715 13.741 6.63715 14.287C6.63715 14.82 7.07281 15.249 7.59814 15.249H9.80204V17.498C9.80204 18.031 10.2376 18.46 10.7629 18.46C11.2883 18.46 11.7111 18.031 11.7111 17.498V15.249ZM20.4964 9.13329C20.7975 9.1298 21.1254 9.126 21.4235 9.126C21.7438 9.126 22 9.386 22 9.711V20.163C22 23.387 19.4246 26 16.2342 26H6.04776C2.71637 26 0 23.257 0 19.877V5.863C0 2.639 2.58824 0 5.77869 0H12.6209C12.954 0 13.2102 0.273 13.2102 0.598V4.784C13.2102 7.163 15.1451 9.113 17.4899 9.126C18.0375 9.126 18.5204 9.13011 18.9429 9.13371C19.2716 9.13652 19.5638 9.139 19.8217 9.139C20.0042 9.139 20.2406 9.13626 20.4964 9.13329ZM20.8482 7.23606C19.795 7.23996 18.5534 7.23606 17.6603 7.22696C16.2432 7.22696 15.076 6.04266 15.076 4.60486V1.17806C15.076 0.61776 15.746 0.33956 16.1292 0.74386C16.8229 1.47563 17.7761 2.48158 18.725 3.48287C19.6708 4.48096 20.6123 5.4744 21.2877 6.18696C21.6618 6.58086 21.3876 7.23476 20.8482 7.23606Z" fill="#33D560"/>
<path d="M28.5674 20V19.1387L29.6816 18.9473V11.1064L28.5674 10.915V10.0469H31.042L35.9229 17.8057L35.9639 17.792V11.1064L34.7402 10.915V10.0469H38.3154V10.915L37.2012 11.1064V20H35.9707L30.96 12.2002L30.9189 12.2139V18.9473L32.1426 19.1387V20H28.5674ZM42.7314 20.1436C42.0479 20.1436 41.4577 19.984 40.9609 19.665C40.4688 19.3415 40.0882 18.8971 39.8193 18.332C39.5505 17.7624 39.416 17.113 39.416 16.3838V16.2334C39.416 15.5042 39.5505 14.8571 39.8193 14.292C40.0882 13.7223 40.4688 13.2757 40.9609 12.9521C41.4577 12.6286 42.0433 12.4668 42.7178 12.4668C43.4014 12.4668 43.9893 12.6286 44.4814 12.9521C44.9782 13.2757 45.361 13.7201 45.6299 14.2852C45.8988 14.8503 46.0332 15.4997 46.0332 16.2334V16.3838C46.0332 17.1175 45.8988 17.7692 45.6299 18.3389C45.361 18.904 44.9805 19.346 44.4883 19.665C43.9961 19.984 43.4105 20.1436 42.7314 20.1436ZM42.7314 19.0908C43.3695 19.0908 43.8548 18.8356 44.1875 18.3252C44.5202 17.8148 44.6865 17.1676 44.6865 16.3838V16.2334C44.6865 15.7139 44.6113 15.2513 44.4609 14.8457C44.3151 14.4355 44.0964 14.1143 43.8047 13.8818C43.513 13.6449 43.1507 13.5264 42.7178 13.5264C42.2894 13.5264 41.9294 13.6449 41.6377 13.8818C41.346 14.1143 41.1273 14.4355 40.9814 14.8457C40.8356 15.2513 40.7627 15.7139 40.7627 16.2334V16.3838C40.7627 17.1676 40.9268 17.8148 41.2549 18.3252C41.5876 18.8356 42.0798 19.0908 42.7314 19.0908ZM49.8955 20L47.2637 13.5742L46.498 13.4717V12.6035H49.6016V13.4717L48.6377 13.6084L50.2783 17.8193L50.4697 18.4141H50.5107L50.7295 17.8193L52.2539 13.6084L51.2627 13.4717V12.6035H54.3594V13.4717L53.5801 13.5742L51.0781 20H49.8955ZM57.3535 20.1436C56.5833 20.1436 55.9977 19.9567 55.5967 19.583C55.1956 19.2048 54.9951 18.6738 54.9951 17.9902C54.9951 17.2884 55.2822 16.7256 55.8564 16.3018C56.4307 15.8734 57.2282 15.6592 58.249 15.6592H59.5684V14.9346C59.5684 14.488 59.4316 14.1416 59.1582 13.8955C58.8893 13.6494 58.5088 13.5264 58.0166 13.5264C57.7067 13.5264 57.4378 13.5651 57.21 13.6426C56.9821 13.7155 56.7747 13.818 56.5879 13.9502L56.4443 14.9824H55.4053V13.2871C56.0752 12.7402 56.9525 12.4668 58.0371 12.4668C58.9349 12.4668 59.639 12.681 60.1494 13.1094C60.6598 13.5378 60.915 14.1507 60.915 14.9482V18.5098C60.915 18.6055 60.915 18.6989 60.915 18.79C60.9196 18.8812 60.9264 18.9723 60.9355 19.0635L61.6533 19.1387V20H59.7188C59.6413 19.6263 59.5934 19.2868 59.5752 18.9814C59.3154 19.3141 58.9896 19.5921 58.5977 19.8154C58.2103 20.0342 57.7956 20.1436 57.3535 20.1436ZM57.5518 19.0156C57.9984 19.0156 58.4062 18.9085 58.7754 18.6943C59.1445 18.4801 59.4089 18.2227 59.5684 17.9219V16.582H58.2012C57.5814 16.582 57.1165 16.7301 56.8066 17.0264C56.4967 17.3226 56.3418 17.653 56.3418 18.0176C56.3418 18.6829 56.7451 19.0156 57.5518 19.0156ZM68.7969 20.1162C68.25 20.1162 67.8148 19.9567 67.4912 19.6377C67.1722 19.3141 67.0127 18.7992 67.0127 18.0928V13.6016H65.8438V12.6035H67.0127V10.8193H68.3594V12.6035H69.9658V13.6016H68.3594V18.0928C68.3594 18.4482 68.43 18.7103 68.5713 18.8789C68.7126 19.0475 68.9017 19.1318 69.1387 19.1318C69.2982 19.1318 69.4759 19.1182 69.6719 19.0908C69.8678 19.0589 70.0205 19.0316 70.1299 19.0088L70.3145 19.8906C70.1185 19.9499 69.877 20.0023 69.5898 20.0479C69.3073 20.0934 69.043 20.1162 68.7969 20.1162ZM71.1621 20V19.1387L72.2764 18.9473V13.6631L71.1621 13.4717V12.6035H73.4795L73.5957 13.5469L73.6094 13.6768C73.819 13.2985 74.0765 13.0023 74.3818 12.7881C74.6917 12.5739 75.0449 12.4668 75.4414 12.4668C75.5827 12.4668 75.7262 12.4805 75.8721 12.5078C76.0225 12.5306 76.1296 12.5534 76.1934 12.5762L76.0156 13.8271L75.0791 13.7725C74.7236 13.7497 74.4251 13.8317 74.1836 14.0186C73.9421 14.2008 73.7552 14.4469 73.623 14.7568V18.9473L74.7373 19.1387V20H71.1621ZM79.4062 20.1436C78.6361 20.1436 78.0505 19.9567 77.6494 19.583C77.2484 19.2048 77.0479 18.6738 77.0479 17.9902C77.0479 17.2884 77.335 16.7256 77.9092 16.3018C78.4834 15.8734 79.2809 15.6592 80.3018 15.6592H81.6211V14.9346C81.6211 14.488 81.4844 14.1416 81.2109 13.8955C80.9421 13.6494 80.5615 13.5264 80.0693 13.5264C79.7594 13.5264 79.4906 13.5651 79.2627 13.6426C79.0348 13.7155 78.8275 13.818 78.6406 13.9502L78.4971 14.9824H77.458V13.2871C78.1279 12.7402 79.0052 12.4668 80.0898 12.4668C80.9876 12.4668 81.6917 12.681 82.2021 13.1094C82.7126 13.5378 82.9678 14.1507 82.9678 14.9482V18.5098C82.9678 18.6055 82.9678 18.6989 82.9678 18.79C82.9723 18.8812 82.9792 18.9723 82.9883 19.0635L83.7061 19.1387V20H81.7715C81.694 19.6263 81.6462 19.2868 81.6279 18.9814C81.3682 19.3141 81.0423 19.5921 80.6504 19.8154C80.263 20.0342 79.8483 20.1436 79.4062 20.1436ZM79.6045 19.0156C80.0511 19.0156 80.459 18.9085 80.8281 18.6943C81.1973 18.4801 81.4616 18.2227 81.6211 17.9219V16.582H80.2539C79.6341 16.582 79.1693 16.7301 78.8594 17.0264C78.5495 17.3226 78.3945 17.653 78.3945 18.0176C78.3945 18.6829 78.7979 19.0156 79.6045 19.0156ZM84.752 20V19.1387L85.8662 18.9473V13.6631L84.752 13.4717V12.6035H87.0693L87.165 13.7041C87.4111 13.3122 87.7188 13.0091 88.0879 12.7949C88.4616 12.5762 88.8854 12.4668 89.3594 12.4668C90.1569 12.4668 90.7744 12.7015 91.2119 13.1709C91.6494 13.6357 91.8682 14.3558 91.8682 15.3311V18.9473L92.9824 19.1387V20H89.4072V19.1387L90.5215 18.9473V15.3584C90.5215 14.7067 90.3916 14.2441 90.1318 13.9707C89.8766 13.6973 89.4847 13.5605 88.9561 13.5605C88.5687 13.5605 88.2246 13.654 87.9238 13.8408C87.6276 14.0277 87.3906 14.2829 87.2129 14.6064V18.9473L88.3271 19.1387V20H84.752ZM96.9336 20.1436C96.4368 20.1436 95.972 20.0934 95.5391 19.9932C95.1061 19.8929 94.6458 19.738 94.1582 19.5283L94.1445 17.7715H95.1631L95.416 18.8311C95.8991 19.0316 96.4049 19.1318 96.9336 19.1318C97.4805 19.1318 97.8724 19.027 98.1094 18.8174C98.3464 18.6077 98.4648 18.348 98.4648 18.0381C98.4648 17.7464 98.3441 17.5003 98.1025 17.2998C97.8656 17.0947 97.4326 16.9215 96.8037 16.7803C95.9105 16.5752 95.252 16.3018 94.8281 15.96C94.4089 15.6136 94.1992 15.1533 94.1992 14.5791C94.1992 14.1781 94.3154 13.8203 94.5479 13.5059C94.7803 13.1868 95.1038 12.9339 95.5186 12.7471C95.9333 12.5602 96.4163 12.4668 96.9678 12.4668C97.5283 12.4668 98.0068 12.5306 98.4033 12.6582C98.8044 12.7858 99.153 12.9567 99.4492 13.1709L99.5176 14.8594H98.5059L98.2871 13.875C98.1276 13.7565 97.9385 13.6654 97.7197 13.6016C97.501 13.5378 97.2503 13.5059 96.9678 13.5059C96.5485 13.5059 96.2067 13.6038 95.9424 13.7998C95.6826 13.9958 95.5527 14.2419 95.5527 14.5381C95.5527 14.7113 95.5892 14.8617 95.6621 14.9893C95.7396 15.1169 95.8854 15.2331 96.0996 15.3379C96.3138 15.4382 96.6283 15.5384 97.043 15.6387C98.0729 15.8802 98.7907 16.1878 99.1963 16.5615C99.6064 16.9352 99.8115 17.3955 99.8115 17.9424C99.8115 18.5667 99.5791 19.0908 99.1143 19.5146C98.654 19.9339 97.9271 20.1436 96.9336 20.1436ZM103.318 20.1436C102.548 20.1436 101.963 19.9567 101.562 19.583C101.16 19.2048 100.96 18.6738 100.96 17.9902C100.96 17.2884 101.247 16.7256 101.821 16.3018C102.396 15.8734 103.193 15.6592 104.214 15.6592H105.533V14.9346C105.533 14.488 105.396 14.1416 105.123 13.8955C104.854 13.6494 104.474 13.5264 103.981 13.5264C103.672 13.5264 103.403 13.5651 103.175 13.6426C102.947 13.7155 102.74 13.818 102.553 13.9502L102.409 14.9824H101.37V13.2871C102.04 12.7402 102.917 12.4668 104.002 12.4668C104.9 12.4668 105.604 12.681 106.114 13.1094C106.625 13.5378 106.88 14.1507 106.88 14.9482V18.5098C106.88 18.6055 106.88 18.6989 106.88 18.79C106.884 18.8812 106.891 18.9723 106.9 19.0635L107.618 19.1387V20H105.684C105.606 19.6263 105.558 19.2868 105.54 18.9814C105.28 19.3141 104.954 19.5921 104.562 19.8154C104.175 20.0342 103.76 20.1436 103.318 20.1436ZM103.517 19.0156C103.963 19.0156 104.371 18.9085 104.74 18.6943C105.109 18.4801 105.374 18.2227 105.533 17.9219V16.582H104.166C103.546 16.582 103.081 16.7301 102.771 17.0264C102.462 17.3226 102.307 17.653 102.307 18.0176C102.307 18.6829 102.71 19.0156 103.517 19.0156ZM112.007 20.1436C111.337 20.1436 110.754 19.9886 110.257 19.6787C109.76 19.3643 109.375 18.929 109.102 18.373C108.828 17.8171 108.691 17.1745 108.691 16.4453V16.1582C108.691 15.4564 108.824 14.8275 109.088 14.2715C109.352 13.7155 109.733 13.2757 110.229 12.9521C110.726 12.6286 111.319 12.4668 112.007 12.4668C112.604 12.4668 113.126 12.5648 113.572 12.7607C114.023 12.9567 114.402 13.2256 114.707 13.5674L114.741 15.3447H113.688L113.456 14.0527C113.301 13.8932 113.107 13.7656 112.875 13.6699C112.643 13.5742 112.369 13.5264 112.055 13.5264C111.654 13.5264 111.3 13.6449 110.995 13.8818C110.694 14.1188 110.46 14.4355 110.291 14.832C110.122 15.2285 110.038 15.6706 110.038 16.1582V16.4453C110.038 17.2565 110.214 17.9014 110.564 18.3799C110.915 18.8538 111.394 19.0908 112 19.0908C112.456 19.0908 112.834 18.9655 113.135 18.7148C113.436 18.4642 113.62 18.1201 113.688 17.6826H114.898L114.912 17.7236C114.889 18.1475 114.764 18.5439 114.536 18.9131C114.308 19.2822 113.982 19.5807 113.559 19.8086C113.139 20.0319 112.622 20.1436 112.007 20.1436ZM111.316 22.9736L111.269 22.2285C111.597 22.2285 111.859 22.1738 112.055 22.0645C112.255 21.9551 112.355 21.7933 112.355 21.5791C112.355 21.3649 112.273 21.2168 112.109 21.1348C111.945 21.0527 111.663 20.9958 111.262 20.9639L111.535 19.7812H112.499L112.362 20.3965C112.663 20.4466 112.911 20.5628 113.107 20.7451C113.303 20.9274 113.401 21.1986 113.401 21.5586C113.401 21.987 113.221 22.3288 112.861 22.584C112.501 22.8438 111.986 22.9736 111.316 22.9736ZM118.494 20.1436C117.724 20.1436 117.138 19.9567 116.737 19.583C116.336 19.2048 116.136 18.6738 116.136 17.9902C116.136 17.2884 116.423 16.7256 116.997 16.3018C117.571 15.8734 118.369 15.6592 119.39 15.6592H120.709V14.9346C120.709 14.488 120.572 14.1416 120.299 13.8955C120.03 13.6494 119.649 13.5264 119.157 13.5264C118.847 13.5264 118.578 13.5651 118.351 13.6426C118.123 13.7155 117.915 13.818 117.729 13.9502L117.585 14.9824H116.546V13.2871C117.216 12.7402 118.093 12.4668 119.178 12.4668C120.076 12.4668 120.78 12.681 121.29 13.1094C121.8 13.5378 122.056 14.1507 122.056 14.9482V18.5098C122.056 18.6055 122.056 18.6989 122.056 18.79C122.06 18.8812 122.067 18.9723 122.076 19.0635L122.794 19.1387V20H120.859C120.782 19.6263 120.734 19.2868 120.716 18.9814C120.456 19.3141 120.13 19.5921 119.738 19.8154C119.351 20.0342 118.936 20.1436 118.494 20.1436ZM118.692 19.0156C119.139 19.0156 119.547 18.9085 119.916 18.6943C120.285 18.4801 120.549 18.2227 120.709 17.9219V16.582H119.342C118.722 16.582 118.257 16.7301 117.947 17.0264C117.637 17.3226 117.482 17.653 117.482 18.0176C117.482 18.6829 117.886 19.0156 118.692 19.0156ZM117.605 11.0791L116.874 10.9287C116.874 10.637 116.938 10.3704 117.065 10.1289C117.193 9.88737 117.364 9.69368 117.578 9.54785C117.792 9.39746 118.032 9.32227 118.296 9.32227C118.501 9.32227 118.72 9.37923 118.952 9.49316C119.185 9.6071 119.408 9.72103 119.622 9.83496C119.841 9.94889 120.028 10.0059 120.183 10.0059C120.369 10.0059 120.531 9.93294 120.668 9.78711C120.805 9.63672 120.873 9.45215 120.873 9.2334L121.611 9.4248C121.611 9.8623 121.472 10.2337 121.194 10.5391C120.916 10.8398 120.579 10.9902 120.183 10.9902C119.959 10.9902 119.731 10.9355 119.499 10.8262C119.267 10.7122 119.046 10.5983 118.836 10.4844C118.631 10.3704 118.451 10.3135 118.296 10.3135C118.104 10.3135 117.94 10.3887 117.804 10.5391C117.672 10.6849 117.605 10.8649 117.605 11.0791ZM127.183 20.1436C126.499 20.1436 125.909 19.984 125.412 19.665C124.92 19.3415 124.539 18.8971 124.271 18.332C124.002 17.7624 123.867 17.113 123.867 16.3838V16.2334C123.867 15.5042 124.002 14.8571 124.271 14.292C124.539 13.7223 124.92 13.2757 125.412 12.9521C125.909 12.6286 126.494 12.4668 127.169 12.4668C127.853 12.4668 128.44 12.6286 128.933 12.9521C129.429 13.2757 129.812 13.7201 130.081 14.2852C130.35 14.8503 130.484 15.4997 130.484 16.2334V16.3838C130.484 17.1175 130.35 17.7692 130.081 18.3389C129.812 18.904 129.432 19.346 128.939 19.665C128.447 19.984 127.862 20.1436 127.183 20.1436ZM127.183 19.0908C127.821 19.0908 128.306 18.8356 128.639 18.3252C128.971 17.8148 129.138 17.1676 129.138 16.3838V16.2334C129.138 15.7139 129.062 15.2513 128.912 14.8457C128.766 14.4355 128.548 14.1143 128.256 13.8818C127.964 13.6449 127.602 13.5264 127.169 13.5264C126.741 13.5264 126.381 13.6449 126.089 13.8818C125.797 14.1143 125.578 14.4355 125.433 14.8457C125.287 15.2513 125.214 15.7139 125.214 16.2334V16.3838C125.214 17.1676 125.378 17.8148 125.706 18.3252C126.039 18.8356 126.531 19.0908 127.183 19.0908Z" fill="black"/>
</svg>
